<svg xmlns="http://www.w3.org/2000/svg" viewBox="0 0 476.93 378.62"><defs><style>.a{fill:#a3b3d8;}.a,.aa,.ab,.ac,.ad,.ae,.af,.ag,.ai,.b,.c,.d,.f,.g,.h,.i,.k,.n,.o,.q,.s,.t,.u,.v,.w,.x,.y,.z{fill-rule:evenodd;}.b{fill:#ebf2f8;}.c{fill:#4bb89f;}.d{fill:#7fc8b8;}.e,.f{fill:#a36e4e;}.g{fill:#794c34;}.h,.j{fill:#dee7f4;}.i,.m{fill:#fff;}.k{fill:#7385a1;}.l,.u{fill:#8397b5;}.n{fill:#252626;}.o,.p{fill:#0c0e0e;}.q,.r{fill:#d84f50;}.s{fill:#a62a34;}.t{fill:#de7272;}.v{fill:#f4ad85;}.w{fill:#f19879;}.x{fill:#bec7d4;}.y{fill:#e8685b;}.z{fill:#f6bb98;}.ab{fill:#d7e0ec;}.ac{fill:#ef8871;}.ad{fill:#d64341;}.ae{fill:#f8caae;}.af{fill:#1c1d1d;}.ag{fill:#be865e;}.ah{fill:#915e40;}.ai{fill:#d49d80;}</style></defs><path class="a" d="M400.27,376.46a76.89,76.89,0,0,0,76.66-76.66h0a76.89,76.89,0,0,0-76.66-76.66h0a32.51,32.51,0,0,1-32.41-32.41h0a32.51,32.51,0,0,1,32.41-32.42h3.86a33.8,33.8,0,0,0,33.7-33.7h0a33.81,33.81,0,0,0-33.7-33.7H392.29A13.16,13.16,0,0,1,379.17,77.8h0a13.17,13.17,0,0,1,13.12-13.13H401A9.07,9.07,0,0,0,410,55.62h0a9.07,9.07,0,0,0-9.05-9H342.53a14.27,14.27,0,0,1-14.22-14.23h0a14.27,14.27,0,0,1,14.22-14.23H360a9.08,9.08,0,0,0,9.06-9.06h0A9.08,9.08,0,0,0,360,0H104A11.85,11.85,0,0,0,92.21,11.82h0A11.85,11.85,0,0,0,104,23.63H122A18.63,18.63,0,0,1,140.52,42.2h0A18.62,18.62,0,0,1,122,60.76H52.61A11.86,11.86,0,0,0,40.79,72.58h0A11.85,11.85,0,0,0,52.61,84.39H64a17.17,17.17,0,0,1,17.12,17.12h0A17.17,17.17,0,0,1,64,118.63H48.51a44.1,44.1,0,0,0-44,44h0a44.11,44.11,0,0,0,44,44h5a42.42,42.42,0,0,1,42.3,42.29h0a42.42,42.42,0,0,1-42.3,42.3H42.64A42.77,42.77,0,0,0,0,333.82H0a42.77,42.77,0,0,0,42.64,42.64ZM73.79,23.63A11.82,11.82,0,1,1,85.61,11.82,11.82,11.82,0,0,1,73.79,23.63ZM426.4,64.68a9.06,9.06,0,1,1,9.05-9.06A9.06,9.06,0,0,1,426.4,64.68Z"/><path class="b" d="M250.4,55.49a5.79,5.79,0,1,0,1.7,4.1,5.82,5.82,0,0,0-1.7-4.1Zm-1.25-5.74a10.15,10.15,0,0,1,2.27,1,10.39,10.39,0,0,1,2,1.5.35.35,0,0,0,.42.05l2.7-1.55h0a.7.7,0,0,1,.49-.06.67.67,0,0,1,.41.31v0l1.89,3.28a.66.66,0,0,1,.07.51.68.68,0,0,1-.31.4l0,0-2.67,1.54a.36.36,0,0,0-.17.39h0a9.4,9.4,0,0,1,.23,1.22,10.36,10.36,0,0,1,.07,1.25,10.24,10.24,0,0,1-.07,1.25,9.4,9.4,0,0,1-.23,1.22.36.36,0,0,0,.19.41L259.1,64h0a.68.68,0,0,1,.31.4.66.66,0,0,1-.07.51l-1.9,3.3h0a.64.64,0,0,1-.41.31.67.67,0,0,1-.5-.06l0,0-2.68-1.54a.36.36,0,0,0-.42,0,10.39,10.39,0,0,1-2,1.5,10.14,10.14,0,0,1-2.29,1,.35.35,0,0,0-.26.34v3.1a.65.65,0,0,1-.19.47.63.63,0,0,1-.47.2H244.4a.68.68,0,0,1-.67-.67v-3.1a.37.37,0,0,0-.27-.35,9.77,9.77,0,0,1-2.27-1,10.15,10.15,0,0,1-2-1.5.36.36,0,0,0-.44,0l-2.67,1.55a.7.7,0,0,1-.51.06.65.65,0,0,1-.4-.31l0,0-1.89-3.28h0a.65.65,0,0,1-.06-.51.63.63,0,0,1,.3-.4l2.69-1.55a.36.36,0,0,0,.17-.4h0a9.4,9.4,0,0,1-.22-1.22,10.23,10.23,0,0,1-.08-1.25,10.36,10.36,0,0,1,.08-1.25,9.4,9.4,0,0,1,.22-1.22.36.36,0,0,0-.19-.41l-2.67-1.54a.63.63,0,0,1-.3-.4.65.65,0,0,1,.06-.51v0L235.16,51h0a.68.68,0,0,1,.4-.31.7.7,0,0,1,.51.07h0l2.69,1.55a.34.34,0,0,0,.43-.06,10.44,10.44,0,0,1,2-1.49,10,10,0,0,1,2.28-1,.36.36,0,0,0,.26-.34V46.3a.63.63,0,0,1,.2-.47.66.66,0,0,1,.47-.2h3.81a.67.67,0,0,1,.47.2.67.67,0,0,1,.19.47v3.11A.36.36,0,0,0,249.15,49.75Z"/><path class="b" d="M205.66,59A12.55,12.55,0,0,0,192,56.25,12.53,12.53,0,0,0,185.2,63a12.58,12.58,0,0,0,0,9.59,12.5,12.5,0,0,0,6.8,6.8,12.53,12.53,0,0,0,16.38-6.8,12.58,12.58,0,0,0,0-9.59A12.53,12.53,0,0,0,205.66,59Zm-4.51-1.65a11.4,11.4,0,0,1,6.16,14.87,11.37,11.37,0,0,1-18.56,3.7,11.63,11.63,0,0,1-2.48-3.7,11.46,11.46,0,0,1,0-8.71,11.58,11.58,0,0,1,2.48-3.69,11.41,11.41,0,0,1,12.4-2.47Zm1.38-9.23a20.41,20.41,0,0,1,2.31.82A22,22,0,0,1,207.07,50a20.91,20.91,0,0,1,2.08,1.39A20.13,20.13,0,0,1,211.07,53a1.29,1.29,0,0,0,1.56.19c1.85-1.06,3.78-2.12,5.59-3.22a.66.66,0,0,1,.27-.09.75.75,0,0,1,.3,0,.76.76,0,0,1,.29.13.74.74,0,0,1,.2.23c1.34,2,2.69,4.66,3.94,6.82a.76.76,0,0,1,.09.28.69.69,0,0,1,0,.32.74.74,0,0,1-.14.28.93.93,0,0,1-.23.21c-1.66,1.09-3.79,2.19-5.55,3.2a1.32,1.32,0,0,0-.55.62.9.9,0,0,0-.08.28l-.12,0,.13.51c.1.41.19.82.26,1.22s.14.81.19,1.24.09.84.12,1.25,0,.82,0,1.26,0,.86,0,1.26-.07.83-.12,1.25-.11.84-.19,1.23-.16.82-.26,1.22a1.35,1.35,0,0,0,.08.87,1.27,1.27,0,0,0,.6.61l4.91,2.84h0l.58.34a.74.74,0,0,1,.23.2.78.78,0,0,1,.14.29.65.65,0,0,1,0,.31.75.75,0,0,1-.09.29l-3.64,6.3h0l-.3.51a.64.64,0,0,1-.2.23.78.78,0,0,1-.29.14.65.65,0,0,1-.31,0,.75.75,0,0,1-.29-.09c-1.76-1.11-3.74-2.16-5.56-3.21a1.31,1.31,0,0,0-.81-.17,1.29,1.29,0,0,0-.75.36h0a21.45,21.45,0,0,1-1.92,1.63,19.22,19.22,0,0,1-2.08,1.38,20.14,20.14,0,0,1-4.59,1.95,1.3,1.3,0,0,0-.69.47,1.35,1.35,0,0,0-.27.8v6.41a.73.73,0,0,1-.06.3,1.06,1.06,0,0,1-.17.26A.9.9,0,0,1,201,96a.77.77,0,0,1-.3.06h-7.87a.73.73,0,0,1-.3-.06.78.78,0,0,1-.26-.17.87.87,0,0,1-.18-.26.94.94,0,0,1-.05-.3V88.87a1.32,1.32,0,0,0-1-1.28,22,22,0,0,1-2.31-.83,18.39,18.39,0,0,1-2.22-1.11,20.39,20.39,0,0,1-2.09-1.38,21.31,21.31,0,0,1-1.91-1.63,1.23,1.23,0,0,0-.79-.36,1.26,1.26,0,0,0-.84.21l-5.49,3.17a.75.75,0,0,1-.29.09.7.7,0,0,1-.32,0,.74.74,0,0,1-.28-.14.78.78,0,0,1-.21-.23c-1.3-2.27-2.62-4.54-3.93-6.81a1,1,0,0,1-.1-.29.82.82,0,0,1,0-.31.76.76,0,0,1,.13-.29.74.74,0,0,1,.23-.2l5.55-3.21a1.25,1.25,0,0,0,.56-.62,1.29,1.29,0,0,0,.07-.21l.14,0-.14-.59c-.1-.4-.19-.81-.27-1.21s-.13-.81-.19-1.24-.08-.84-.11-1.25,0-.82,0-1.26,0-.86,0-1.26.06-.83.11-1.25.12-.85.19-1.24.17-.81.27-1.22a1.33,1.33,0,0,0-.09-.86,1.36,1.36,0,0,0-.59-.62l-5.5-3.17a.87.87,0,0,1-.23-.2.76.76,0,0,1-.13-.29.82.82,0,0,1,0-.31,1,1,0,0,1,.1-.29c1.34-2,2.69-4.67,3.93-6.82a.93.93,0,0,1,.21-.23.72.72,0,0,1,.28-.13.87.87,0,0,1,.32,0,.91.91,0,0,1,.29.1L181,53.23a1.32,1.32,0,0,0,.84.16,1.27,1.27,0,0,0,.75-.37,20.78,20.78,0,0,1,4-3,21.21,21.21,0,0,1,2.24-1.11,19.77,19.77,0,0,1,2.35-.83,1.42,1.42,0,0,0,.69-.48,1.29,1.29,0,0,0,.26-.79V40.4a.94.94,0,0,1,.05-.3.68.68,0,0,1,.18-.26,1,1,0,0,1,.26-.18.94.94,0,0,1,.3-.06h7.87a1,1,0,0,1,.3.06.93.93,0,0,1,.26.18.79.79,0,0,1,.23.56v6.41a1.32,1.32,0,0,0,.28.81,1.37,1.37,0,0,0,.73.47Zm2.77-.24A20.57,20.57,0,0,1,207.65,49a21.5,21.5,0,0,1,2.2,1.46,22.09,22.09,0,0,1,2,1.72.13.13,0,0,0,.09,0l.09,0L217.66,49a2,2,0,0,1,.7-.22,1.85,1.85,0,0,1,.74.06,1.91,1.91,0,0,1,1.18.9c1.36,2.2,2.64,4.57,3.94,6.82a1.86,1.86,0,0,1,.24.72,1.93,1.93,0,0,1-.05.76,1.86,1.86,0,0,1-.34.69,1.84,1.84,0,0,1-.57.5c-1.78,1.1-3.72,2.15-5.55,3.21a.11.11,0,0,0-.06.07.11.11,0,0,0,0,.1l.12.51h0l.15.76c.08.45.15.89.2,1.31s.09.87.12,1.32,0,.9,0,1.33,0,.87,0,1.33-.07.89-.12,1.31-.12.87-.2,1.31-.17.87-.27,1.29a.11.11,0,0,0,0,.1.14.14,0,0,0,.07.08c2,1.09,4.11,2.37,6.12,3.53l-.07.09.06.08a1.86,1.86,0,0,1,.34.69,2,2,0,0,1-.19,1.48L220,86.45l-.08,0-.13.11a2,2,0,0,1-.68.33,1.82,1.82,0,0,1-.77.05,2,2,0,0,1-.7-.23c-1.85-1-3.75-2.17-5.58-3.22l-.09,0a.13.13,0,0,0-.09,0,22,22,0,0,1-2,1.71,23.39,23.39,0,0,1-2.2,1.47,21.79,21.79,0,0,1-2.37,1.18,23.53,23.53,0,0,1-2.48.88.19.19,0,0,0-.09,0,.17.17,0,0,0,0,.1v6.41a2,2,0,0,1-.57,1.38,2,2,0,0,1-.64.43,2,2,0,0,1-.74.14h-7.87a1.85,1.85,0,0,1-1.38-.57,2,2,0,0,1-.43-.63,2.13,2.13,0,0,1-.15-.75V88.87a.15.15,0,0,0,0-.1.13.13,0,0,0-.09,0h0a21.86,21.86,0,0,1-2.47-.88,21.43,21.43,0,0,1-2.35-1.17,22.3,22.3,0,0,1-2.21-1.47,20.5,20.5,0,0,1-2-1.72.18.18,0,0,0-.1,0l-.09,0L176,86.66a1.86,1.86,0,0,1-.72.24,1.76,1.76,0,0,1-.76-.05,2.09,2.09,0,0,1-.69-.33,2,2,0,0,1-.49-.56c-1.46-2.35-2.84-4.91-4.23-7.32l.08,0a.57.57,0,0,1,0-.18,1.76,1.76,0,0,1,.05-.76,2,2,0,0,1,.33-.69,2.1,2.1,0,0,1,.57-.5l5.56-3.21a.11.11,0,0,0,.06-.07.17.17,0,0,0,0-.1l-.15-.59h0c0-.23-.09-.46-.14-.7-.08-.44-.14-.88-.2-1.31s-.09-.86-.12-1.31,0-.9,0-1.33,0-.88,0-1.33.07-.89.12-1.32.12-.86.2-1.31.18-.87.28-1.28a.21.21,0,0,0,0-.11.16.16,0,0,0-.07-.07l-5.55-3.2a2,2,0,0,1-.57-.5,2.09,2.09,0,0,1-.33-.69,1.76,1.76,0,0,1-.05-.76,1.91,1.91,0,0,1,.23-.71c1.32-2.44,2.84-4.91,4.23-7.33l.08,0,.13-.11a2.09,2.09,0,0,1,.69-.33,1.93,1.93,0,0,1,.76-.06A2.26,2.26,0,0,1,176,49l.41.24h0l5.15,3a.18.18,0,0,0,.1,0,.13.13,0,0,0,.09,0h0a21.86,21.86,0,0,1,2-1.71,21.6,21.6,0,0,1,4.56-2.64,21.62,21.62,0,0,1,2.49-.88.16.16,0,0,0,.08-.06.1.1,0,0,0,0-.09V40.4a2.09,2.09,0,0,1,.15-.75,2,2,0,0,1,.43-.63,1.92,1.92,0,0,1,1.38-.58h7.87a2,2,0,0,1,.74.15,2,2,0,0,1,.64.43,2,2,0,0,1,.57,1.38v6.41a.29.29,0,0,0,0,.1.19.19,0,0,0,.09.05h0A21.86,21.86,0,0,1,205.3,47.85Z"/><path class="c" d="M361.67,334.21l3,3.73h13.51l3-3.73C391.8,305.41,351,305.41,361.67,334.21Z"/><path class="d" d="M365.51,334.21l1.8,3.73h8.17l1.79-3.73C383.72,305.41,359.06,305.41,365.51,334.21Z"/><rect class="e" x="358.35" y="331.82" width="26.09" height="9.54" rx="1.46"/><polygon class="f" points="379.12 337.21 363.66 337.21 359.63 341.36 362.92 355.83 371.39 355.83 379.86 355.83 383.16 341.36 379.12 337.21"/><polygon class="g" points="359.63 341.36 360.31 344.21 382.48 344.21 383.16 341.36 359.63 341.36"/><path class="c" d="M378.81,316.8l-.84,1.92,2.76,5.26,2,.39C396.17,322.64,387.83,306.77,378.81,316.8Z"/><path class="d" d="M384.45,321.88c6.9-3.18,4-8.73-2.48-4.93C376.46,320.17,378.72,324.52,384.45,321.88Z"/><path class="c" d="M365,316.38l.27,1.55-3,3.35-1.57-.08C351.27,317.51,360.25,307.39,365,316.38Z"/><path class="d" d="M360,319.07c-4.48-3.57-1.36-7.12,2.71-3.15C366.15,319.27,363.71,322.05,360,319.07Z"/><path class="h" d="M380.12,117.59a14.09,14.09,0,0,0-13.21,9.15,7.5,7.5,0,0,0-1.58-.17,7.31,7.31,0,0,0-6.79,4.61,7.4,7.4,0,0,0-2.37-.38,7.5,7.5,0,1,0,0,15h52.64a9.1,9.1,0,1,0-2.88-17.73,8.86,8.86,0,0,0-13.74-3.67A14.08,14.08,0,0,0,380.12,117.59Z"/><path class="i" d="M360.78,109.46a18.17,18.17,0,1,1,0,36.33h-37a11.72,11.72,0,1,1,3.7-22.84,11.41,11.41,0,0,1,17.71-4.72A18.14,18.14,0,0,1,360.78,109.46Z"/><rect class="j" x="324.73" y="150.23" width="4.79" height="4.79" rx="0.96"/><rect class="j" x="334.55" y="150.23" width="4.79" height="4.79" rx="0.96"/><rect class="j" x="344.37" y="150.23" width="4.79" height="4.79" rx="0.96"/><rect class="j" x="354.19" y="150.23" width="4.79" height="4.79" rx="0.96"/><path class="i" d="M369.08,259.3H367.7a.85.85,0,0,0-.84.85h0a.85.85,0,0,0,.84.85h1.38a.85.85,0,0,0,.85-.85h0A.86.86,0,0,0,369.08,259.3Z"/><path class="i" d="M389.92,272.43h8.92a.85.85,0,0,1,.85.85h0a.86.86,0,0,1-.85.85h-8.92a.86.86,0,0,1-.85-.85h0A.85.85,0,0,1,389.92,272.43Z"/><path class="i" d="M381.67,278.5h-7.43a.86.86,0,0,0-.85.85h0a.85.85,0,0,0,.85.85h7.43a.85.85,0,0,0,.85-.85h0A.86.86,0,0,0,381.67,278.5Z"/><path class="i" d="M376.21,289.94h-2a.85.85,0,0,0-.85.85h0a.86.86,0,0,0,.85.85h2a.86.86,0,0,0,.85-.85h0A.85.85,0,0,0,376.21,289.94Z"/><path class="i" d="M441,302.08H418.83a.85.85,0,0,0-.84.85h0a.85.85,0,0,0,.84.85H441a.85.85,0,0,0,.85-.85h0A.86.86,0,0,0,441,302.08Z"/><path class="i" d="M426.46,308.16h8.92a.85.85,0,0,1,.85.85h0a.85.85,0,0,1-.85.84h-8.92a.85.85,0,0,1-.85-.84h0A.85.85,0,0,1,426.46,308.16Z"/><path class="i" d="M418.21,314.23h-7.44a.86.86,0,0,0-.85.85h0a.86.86,0,0,0,.85.85h7.44a.86.86,0,0,0,.85-.85h0A.86.86,0,0,0,418.21,314.23Z"/><path class="i" d="M412.75,325.67h-2a.86.86,0,0,0-.85.85h0a.85.85,0,0,0,.85.84h2a.85.85,0,0,0,.85-.84h0A.86.86,0,0,0,412.75,325.67Z"/><path class="i" d="M453.84,337.81H431.72a.86.86,0,0,0-.85.85h0a.85.85,0,0,0,.85.85h22.12a.85.85,0,0,0,.85-.85h0A.86.86,0,0,0,453.84,337.81Z"/><path class="k" d="M353.47,259.3H341.94a.86.86,0,0,0-.85.85h0a.86.86,0,0,0,.85.85h11.53a.86.86,0,0,0,.85-.85h0A.86.86,0,0,0,353.47,259.3Z"/><path class="k" d="M402.82,265H380a.85.85,0,0,0-.85.85h0a.85.85,0,0,0,.85.85h22.82a.85.85,0,0,0,.85-.85h0A.85.85,0,0,0,402.82,265Z"/><path class="k" d="M347.27,265H373a.85.85,0,0,1,.85.85h0a.85.85,0,0,1-.85.85H347.27a.85.85,0,0,1-.84-.85h0A.85.85,0,0,1,347.27,265Z"/><path class="k" d="M363.33,259.3H341.58a.86.86,0,0,0-.85.85h0a.85.85,0,0,0,.85.85h21.75a.85.85,0,0,0,.84-.85h0A.85.85,0,0,0,363.33,259.3Z"/><path class="k" d="M435.47,272.43H402.62a.85.85,0,0,0-.84.85h0a.85.85,0,0,0,.84.85h32.85a.86.86,0,0,0,.85-.85h0A.85.85,0,0,0,435.47,272.43Z"/><path class="k" d="M386.53,272.43H353.69a.85.85,0,0,0-.85.85h0a.86.86,0,0,0,.85.85h32.84a.86.86,0,0,0,.85-.85h0A.85.85,0,0,0,386.53,272.43Z"/><path class="k" d="M369.56,278.5h-11.7a.86.86,0,0,0-.85.85h0a.85.85,0,0,0,.85.85h11.7a.85.85,0,0,0,.85-.85h0A.86.86,0,0,0,369.56,278.5Z"/><path class="k" d="M437.85,278.5h-52a.86.86,0,0,0-.85.85h0a.85.85,0,0,0,.85.85h52a.85.85,0,0,0,.85-.85h0A.86.86,0,0,0,437.85,278.5Z"/><path class="k" d="M409.86,284.29h-52a.85.85,0,0,0-.85.85h0a.85.85,0,0,0,.85.85h52a.85.85,0,0,0,.85-.85h0A.85.85,0,0,0,409.86,284.29Z"/><path class="k" d="M369.56,289.94h-11.7a.85.85,0,0,0-.85.85h0a.86.86,0,0,0,.85.85h11.7a.86.86,0,0,0,.85-.85h0A.85.85,0,0,0,369.56,289.94Z"/><path class="k" d="M417.31,289.94H380.69a.85.85,0,0,0-.85.85h0a.86.86,0,0,0,.85.85h36.62a.85.85,0,0,0,.84-.85h0A.85.85,0,0,0,417.31,289.94Z"/><path class="k" d="M425.71,296H368.15a.85.85,0,0,0-.85.85h0a.85.85,0,0,0,.85.85h57.56a.85.85,0,0,0,.85-.85h0A.85.85,0,0,0,425.71,296Z"/><path class="k" d="M413.37,302.08H376a.85.85,0,0,0-.84.85h0a.85.85,0,0,0,.84.85h37.42a.86.86,0,0,0,.85-.85h0A.86.86,0,0,0,413.37,302.08Z"/><path class="k" d="M472,308.16H439.16a.85.85,0,0,0-.85.85h0a.85.85,0,0,0,.85.84H472a.85.85,0,0,0,.85-.84h0A.86.86,0,0,0,472,308.16Z"/><path class="k" d="M423.07,308.16H390.22a.86.86,0,0,0-.85.85h0a.85.85,0,0,0,.85.84h32.85a.85.85,0,0,0,.85-.84h0A.85.85,0,0,0,423.07,308.16Z"/><path class="k" d="M406.1,314.23H394.39a.86.86,0,0,0-.85.85h0a.86.86,0,0,0,.85.85H406.1a.86.86,0,0,0,.85-.85h0A.86.86,0,0,0,406.1,314.23Z"/><path class="k" d="M474.39,314.23h-52a.86.86,0,0,0-.85.85h0a.85.85,0,0,0,.85.85h52a.85.85,0,0,0,.85-.85h0A.86.86,0,0,0,474.39,314.23Z"/><path class="k" d="M446.4,320h-52a.86.86,0,0,0-.85.85h0a.86.86,0,0,0,.85.85h52a.86.86,0,0,0,.85-.85h0A.86.86,0,0,0,446.4,320Z"/><path class="k" d="M406.1,325.67H394.39a.86.86,0,0,0-.85.85h0a.85.85,0,0,0,.85.84H406.1a.85.85,0,0,0,.85-.84h0A.86.86,0,0,0,406.1,325.67Z"/><path class="k" d="M453.84,325.67H417.22a.86.86,0,0,0-.85.85h0a.85.85,0,0,0,.85.84h36.62a.85.85,0,0,0,.85-.84h0A.85.85,0,0,0,453.84,325.67Z"/><path class="k" d="M446.4,331.74H388.83a.85.85,0,0,0-.84.85h0a.85.85,0,0,0,.84.85H446.4a.86.86,0,0,0,.85-.85h0A.86.86,0,0,0,446.4,331.74Z"/><path class="k" d="M426.25,337.81H388.83a.85.85,0,0,0-.84.85h0a.85.85,0,0,0,.84.85h37.42a.86.86,0,0,0,.85-.85h0A.86.86,0,0,0,426.25,337.81Z"/><path class="i" d="M54.61,179.41l-8.54-3.77v-1.23l8.54-4.27v2.06l-5.89,2.73,5.89,2.42v2.06ZM57.75,177v-.64a2.79,2.79,0,0,1,.35-1.44,4.59,4.59,0,0,1,1.29-1.3,5.14,5.14,0,0,0,1.19-1,1.54,1.54,0,0,0,.29-.91,1,1,0,0,0-.42-.85,1.9,1.9,0,0,0-1.15-.29,6.63,6.63,0,0,0-2.94.84l-.94-1.88a8.19,8.19,0,0,1,4.07-1.08,4.39,4.39,0,0,1,2.82.85,2.78,2.78,0,0,1,1,2.27,3.08,3.08,0,0,1-.42,1.64,6.19,6.19,0,0,1-1.64,1.55,4.69,4.69,0,0,0-1,.93,1.4,1.4,0,0,0-.22.83V177Zm-.28,2.94a1.42,1.42,0,0,1,.39-1.09,1.55,1.55,0,0,1,1.12-.37,1.5,1.5,0,0,1,1.11.38,1.43,1.43,0,0,1,.39,1.08,1.45,1.45,0,0,1-.39,1.07,1.48,1.48,0,0,1-1.11.39,1.5,1.5,0,0,1-1.11-.38,1.41,1.41,0,0,1-.4-1.08ZM68,174.49h.88a2.89,2.89,0,0,0,1.84-.49,1.68,1.68,0,0,0,.61-1.41,1.75,1.75,0,0,0-.51-1.39,2.4,2.4,0,0,0-1.61-.44H68v3.73Zm6-2a3.85,3.85,0,0,1-1.26,3.11,5.45,5.45,0,0,1-3.62,1.08H68v4.47H65.36V168.57h4a5.37,5.37,0,0,1,3.48,1,3.59,3.59,0,0,1,1.19,2.94Zm12.69,8.66H84.08v-5.42h-5v5.42H76.43V168.57H79.1v4.93h5v-4.93h2.66v12.58Zm5.84-6.66h.88A2.85,2.85,0,0,0,95.3,174a1.68,1.68,0,0,0,.62-1.41,1.75,1.75,0,0,0-.51-1.39,2.4,2.4,0,0,0-1.61-.44H92.58v3.73Zm6-2a3.82,3.82,0,0,1-1.27,3.11,5.4,5.4,0,0,1-3.61,1.08H92.58v4.47H89.92V168.57h4a5.39,5.39,0,0,1,3.48,1,3.62,3.62,0,0,1,1.19,2.94Zm3.17,4.49v-.64a2.9,2.9,0,0,1,.35-1.44,4.88,4.88,0,0,1,1.29-1.3,5.25,5.25,0,0,0,1.2-1,1.53,1.53,0,0,0,.28-.91,1,1,0,0,0-.41-.85,1.94,1.94,0,0,0-1.15-.29,6.7,6.7,0,0,0-3,.84l-.93-1.88a8.16,8.16,0,0,1,4.07-1.08,4.39,4.39,0,0,1,2.82.85,2.81,2.81,0,0,1,1,2.27,3,3,0,0,1-.43,1.64,6.19,6.19,0,0,1-1.64,1.55,4.69,4.69,0,0,0-1,.93,1.4,1.4,0,0,0-.22.83V177Zm-.27,2.94a1.42,1.42,0,0,1,.38-1.09,1.56,1.56,0,0,1,1.13-.37,1.47,1.47,0,0,1,1.1.38,1.39,1.39,0,0,1,.39,1.08,1.35,1.35,0,0,1-1.49,1.46,1.52,1.52,0,0,1-1.12-.38,1.44,1.44,0,0,1-.39-1.08Zm7.06-2.57,5.89-2.42-5.89-2.73v-2.06l8.55,4.27v1.23l-8.55,3.77Z"/><rect class="l" x="42.5" y="116.26" width="82.19" height="45.61" rx="3.86"/><rect class="m" x="40.49" y="114.2" width="82.19" height="45.61" rx="3.86"/><path class="n" d="M44.36,114.2h74.47a3.88,3.88,0,0,1,3.86,3.86v5.33a1.08,1.08,0,0,1-1.08,1.08h-80a1.08,1.08,0,0,1-1.09-1.08v-5.33A3.88,3.88,0,0,1,44.36,114.2Z"/><path class="o" d="M46.74,128.78H67.62a.8.8,0,0,1,.8.8h0a.8.8,0,0,1-.8.8H46.74a.8.8,0,0,1-.8-.8h0A.8.8,0,0,1,46.74,128.78Z"/><rect class="p" x="57.49" y="132.32" width="10.93" height="1.6" rx="0.8"/><rect class="p" x="53.42" y="132.32" width="2.34" height="1.6" rx="0.8"/><rect class="p" x="45.94" y="132.32" width="6.28" height="1.6" rx="0.8"/><path class="o" d="M46.74,136.52H67.62a.8.8,0,0,1,.8.8h0a.8.8,0,0,1-.8.8H46.74a.8.8,0,0,1-.8-.8h0A.8.8,0,0,1,46.74,136.52Z"/><path class="o" d="M46.74,140.06h9.33a.8.8,0,0,1,.8.8h0a.8.8,0,0,1-.8.8H46.74a.8.8,0,0,1-.8-.8h0A.8.8,0,0,1,46.74,140.06Z"/><path class="o" d="M60.14,140.06H59.4a.81.81,0,0,0-.81.8h0a.81.81,0,0,0,.81.8h.74a.8.8,0,0,0,.8-.8h0A.8.8,0,0,0,60.14,140.06Z"/><path class="o" d="M67.62,140.06H63a.8.8,0,0,0-.8.8h0a.8.8,0,0,0,.8.8h4.67a.8.8,0,0,0,.8-.8h0A.8.8,0,0,0,67.62,140.06Z"/><path class="o" d="M46.74,144.26H67.62a.8.8,0,0,1,.8.8h0a.8.8,0,0,1-.8.8H46.74a.8.8,0,0,1-.8-.8h0A.8.8,0,0,1,46.74,144.26Z"/><rect class="p" x="57.49" y="147.79" width="10.93" height="1.6" rx="0.8"/><rect class="p" x="53.42" y="147.79" width="2.34" height="1.6" rx="0.8"/><rect class="p" x="45.94" y="147.79" width="6.28" height="1.6" rx="0.8"/><path class="o" d="M46.74,152H67.62a.8.8,0,0,1,.8.81h0a.8.8,0,0,1-.8.8H46.74a.8.8,0,0,1-.8-.8h0A.8.8,0,0,1,46.74,152Z"/><path class="q" d="M81,128.78H116.3a.8.8,0,0,1,.8.8h0a.8.8,0,0,1-.8.8H81a.8.8,0,0,1-.8-.8h0A.8.8,0,0,1,81,128.78Z"/><rect class="r" x="99.15" y="132.32" width="17.95" height="1.6" rx="0.8"/><rect class="r" x="92.46" y="132.32" width="3.85" height="1.6" rx="0.8"/><rect class="r" x="80.18" y="132.32" width="10.31" height="1.6" rx="0.8"/><path class="q" d="M81,136.52H116.3a.8.8,0,0,1,.8.8h0a.8.8,0,0,1-.8.8H81a.8.8,0,0,1-.8-.8h0A.8.8,0,0,1,81,136.52Z"/><path class="q" d="M81,140.06H97.32a.8.8,0,0,1,.81.8h0a.8.8,0,0,1-.81.8H81a.8.8,0,0,1-.8-.8h0A.8.8,0,0,1,81,140.06Z"/><path class="q" d="M104,140.06h-2.25a.8.8,0,0,0-.8.8h0a.8.8,0,0,0,.8.8H104a.8.8,0,0,0,.8-.8h0A.8.8,0,0,0,104,140.06Z"/><path class="q" d="M116.3,140.06h-8.71a.8.8,0,0,0-.8.8h0a.8.8,0,0,0,.8.8h8.71a.8.8,0,0,0,.8-.8h0A.8.8,0,0,0,116.3,140.06Z"/><path class="q" d="M81,144.26H116.3a.8.8,0,0,1,.8.8h0a.8.8,0,0,1-.8.8H81a.8.8,0,0,1-.8-.8h0A.8.8,0,0,1,81,144.26Z"/><rect class="r" x="99.15" y="147.79" width="17.95" height="1.6" rx="0.8"/><rect class="r" x="92.46" y="147.79" width="3.85" height="1.6" rx="0.8"/><rect class="r" x="80.18" y="147.79" width="10.31" height="1.6" rx="0.8"/><path class="q" d="M81,152H116.3a.8.8,0,0,1,.8.81h0a.8.8,0,0,1-.8.8H81a.8.8,0,0,1-.8-.8h0A.8.8,0,0,1,81,152Z"/><path class="i" d="M102.87,121.19a1.86,1.86,0,1,0-1.85-1.85A1.85,1.85,0,0,0,102.87,121.19Z"/><path class="i" d="M109.56,121.19a1.86,1.86,0,1,0-1.86-1.85A1.85,1.85,0,0,0,109.56,121.19Z"/><path class="i" d="M116.24,121.19a1.86,1.86,0,1,0-1.85-1.85A1.85,1.85,0,0,0,116.24,121.19Z"/><rect class="j" x="97.31" y="75.04" width="4.79" height="4.79" rx="0.96"/><rect class="j" x="107.13" y="75.04" width="4.79" height="4.79" rx="0.96"/><rect class="j" x="116.95" y="75.04" width="4.79" height="4.79" rx="0.96"/><rect class="j" x="126.77" y="75.04" width="4.79" height="4.79" rx="0.96"/><rect class="j" x="34.07" y="343.6" width="4.79" height="4.79" rx="0.96"/><rect class="j" x="43.89" y="343.6" width="4.79" height="4.79" rx="0.96"/><rect class="j" x="53.71" y="343.6" width="4.79" height="4.79" rx="0.96"/><rect class="j" x="63.53" y="343.6" width="4.79" height="4.79" rx="0.96"/><path class="s" d="M141.23,322a11.45,11.45,0,1,1-8.1,3.36,11.39,11.39,0,0,1,8.1-3.36Zm4.93,6.52a7,7,0,1,0,2,4.93A6.93,6.93,0,0,0,146.16,328.48Z"/><path class="q" d="M123,355.83h0a18,18,0,0,0,17.95-18V319.16a1.59,1.59,0,0,0-1.59-1.59H106.63a1.59,1.59,0,0,0-1.59,1.59v18.71A18,18,0,0,0,123,355.83Z"/><path class="s" d="M134.8,335.63a17.62,17.62,0,0,1-2.06,8.33,18.17,18.17,0,0,1-9,8.26,17.73,17.73,0,0,1-9.8,1.12,17.86,17.86,0,0,0,19.86-1.12,18.21,18.21,0,0,0,6.1-8.21,17.9,17.9,0,0,0,1.08-6.14V319.16a1.59,1.59,0,0,0-1.59-1.59H134.8v18.06Z"/><path class="q" d="M107.43,355.83h31.13a2.4,2.4,0,0,0,2.39-2.39h0a2.4,2.4,0,0,0-2.39-2.4H107.43a2.4,2.4,0,0,0-2.39,2.4h0A2.4,2.4,0,0,0,107.43,355.83Z"/><path class="t" d="M110.79,321h0a3,3,0,0,1,3,3v10.83a3,3,0,0,1-3,3h0a3,3,0,0,1-3-3V324A3,3,0,0,1,110.79,321Z"/><path class="i" d="M107.66,295.43h13.69a1.89,1.89,0,0,0,1.89-1.89h0a1.89,1.89,0,0,0-1.89-1.88H102.93A4.94,4.94,0,0,1,98,286.73h0a4.94,4.94,0,0,1,4.92-4.93h47.89a5,5,0,0,1,4.93,4.93h0a5,5,0,0,1-4.93,4.93h-16.7a1.89,1.89,0,0,0-1.89,1.88h0a1.89,1.89,0,0,0,1.89,1.89h6.42a3.82,3.82,0,0,1,3.81,3.81h0a3.81,3.81,0,0,1-3.81,3.8H129.92a7.59,7.59,0,0,0-7.57,7.56v3.47a1.79,1.79,0,0,1-1.78,1.79h0a1.8,1.8,0,0,1-1.79-1.79v-6.6a4.44,4.44,0,0,0-4.43-4.43h-6.69a3.81,3.81,0,0,1-3.8-3.8h0A3.81,3.81,0,0,1,107.66,295.43Z"/><path class="u" d="M350.51,57.31H301.88a6.44,6.44,0,0,0-6.42,6.42v49.5a.71.71,0,0,0,1.22.51l10.94-10.94h42.89a6.45,6.45,0,0,0,6.43-6.43V63.73A6.45,6.45,0,0,0,350.51,57.31Z"/><path class="q" d="M349.1,55.6H300.46A6.44,6.44,0,0,0,294,62v49.5a.71.71,0,0,0,1.22.5l10.95-10.94H349.1a6.44,6.44,0,0,0,6.42-6.42V62A6.44,6.44,0,0,0,349.1,55.6Z"/><path class="i" d="M314.77,80.62A4.73,4.73,0,0,1,313,84.53,7.73,7.73,0,0,1,308,86a11.62,11.62,0,0,1-5.19-1.11V81.24A19.94,19.94,0,0,0,306,82.41a9.13,9.13,0,0,0,2.35.34,3.33,3.33,0,0,0,2-.49,1.65,1.65,0,0,0,.68-1.45,1.55,1.55,0,0,0-.3-1,3.33,3.33,0,0,0-.88-.81,20.94,20.94,0,0,0-2.38-1.24,12.09,12.09,0,0,1-2.53-1.52,5.8,5.8,0,0,1-1.34-1.7,4.89,4.89,0,0,1-.5-2.26,4.75,4.75,0,0,1,1.65-3.83,6.85,6.85,0,0,1,4.56-1.39,10.53,10.53,0,0,1,2.73.34,19.28,19.28,0,0,1,2.72,1l-1.26,3a19.28,19.28,0,0,0-2.42-.84,7.9,7.9,0,0,0-1.89-.24,2.54,2.54,0,0,0-1.7.51,1.74,1.74,0,0,0-.59,1.35,1.62,1.62,0,0,0,.24.89,2.56,2.56,0,0,0,.76.74,23.27,23.27,0,0,0,2.47,1.29,9.85,9.85,0,0,1,3.53,2.47,4.83,4.83,0,0,1,.95,3Zm20-4.11a11.54,11.54,0,0,1-1.15,5.43,7,7,0,0,1-3.37,3.21l4.42,4.93h-5L326.3,86H326a8.4,8.4,0,0,1-6.48-2.45c-1.5-1.63-2.26-4-2.26-7s.76-5.39,2.27-7A8.47,8.47,0,0,1,326,67.08a8.36,8.36,0,0,1,6.47,2.43c1.5,1.62,2.24,4,2.24,7Zm-13.39,0a7.69,7.69,0,0,0,1.17,4.64A4.1,4.1,0,0,0,326,82.7q4.65,0,4.65-6.19T326,70.31a4.13,4.13,0,0,0-3.5,1.57,7.65,7.65,0,0,0-1.18,4.63Zm17.19,9.2V67.36h3.89V82.49h7.44v3.22Z"/><path class="i" d="M172.13,196.37a2.67,2.67,0,1,0-2.67-2.67A2.67,2.67,0,0,0,172.13,196.37Z"/><path class="i" d="M347.14,227.13a2.67,2.67,0,1,0-2.66-2.66A2.67,2.67,0,0,0,347.14,227.13Z"/><path class="i" d="M275.31,26.49a2.67,2.67,0,1,0-2.66-2.66A2.67,2.67,0,0,0,275.31,26.49Z"/><path class="i" d="M66.09,321.6a2.67,2.67,0,1,0-2.67-2.67A2.67,2.67,0,0,0,66.09,321.6Z"/><path class="i" d="M148.84,88.17a2.67,2.67,0,1,0-2.66-2.67A2.68,2.68,0,0,0,148.84,88.17Z"/><path class="i" d="M168.36,25.82a1.21,1.21,0,1,0-1.21-1.21A1.21,1.21,0,0,0,168.36,25.82Z"/><path class="i" d="M200.37,115.6a1.21,1.21,0,1,0-1.21-1.21A1.21,1.21,0,0,0,200.37,115.6Z"/><path class="i" d="M280,64.07a1.21,1.21,0,1,0-1.21-1.21A1.21,1.21,0,0,0,280,64.07Z"/><path class="i" d="M314.35,192.89a1.21,1.21,0,1,0-1.21-1.21A1.21,1.21,0,0,0,314.35,192.89Z"/><path class="i" d="M402.57,107.79a1.21,1.21,0,1,0-1.21-1.21A1.21,1.21,0,0,0,402.57,107.79Z"/><path class="i" d="M182.41,164a1.21,1.21,0,1,0,0-2.42,1.21,1.21,0,1,0,0,2.42Z"/><path class="i" d="M118.4,253.78a1.21,1.21,0,1,0-1.22-1.21A1.21,1.21,0,0,0,118.4,253.78Z"/><path class="i" d="M36.42,320.92a1.21,1.21,0,1,0-1.21-1.21A1.21,1.21,0,0,0,36.42,320.92Z"/><path class="i" d="M404.13,247.54a1.22,1.22,0,1,0-1.21-1.22A1.22,1.22,0,0,0,404.13,247.54Z"/><path class="i" d="M425.21,357.61A1.21,1.21,0,1,0,424,356.4,1.21,1.21,0,0,0,425.21,357.61Z"/><path class="i" d="M27.83,171a1.21,1.21,0,1,0-1.21-1.21A1.22,1.22,0,0,0,27.83,171Z"/><path class="i" d="M105.12,100.77a1.21,1.21,0,1,0-1.21-1.21A1.21,1.21,0,0,0,105.12,100.77Z"/><path class="i" d="M237.06,27.38a1.21,1.21,0,1,0-1.21-1.21A1.21,1.21,0,0,0,237.06,27.38Z"/><path class="i" d="M319,40.65a1.21,1.21,0,0,0,0-2.42,1.21,1.21,0,1,0,0,2.42Z"/><path class="i" d="M166.64,151.52c-2.49,7.66-4.88,17.3-6.67,22.24-13.8,38-9.56,39.75,20.24,37.5,12-.9,23.61-.94,46.19-4.37,3.27-.47,1.7,1.16,3.36,2.75s-12.7,12.87-12.7,12.87l-26.65,28.07c-20.44-2.12-50.15-8.39-63.2-17.8-20-17.08,9.11-64.86,19.17-88.39.81-1.91,6.3-.5,6.83-2.06C156.19,143.48,168.2,146.71,166.64,151.52Z"/><path class="v" d="M174.6,144.3A18.45,18.45,0,0,1,184,141c2-.08.05-7.53-6.61-4.34,0,0-3.49.26-3.91-1.21s12.18-17.48,13.56-19.24a2.34,2.34,0,0,0-1.29-3.68c-.93,0-2.89,2.54-5.6,5.61s-5.79,6.5-6.32,6.55-1.21-.6-.39-2.87,5.86-14.55,5.5-15.75-2.6-1.8-3.91-.18-5.91,14.22-7,15.64-2.32.14-2.22-1.12,3.17-15.63,2.87-16.76-2.6-1.67-3.52.36-4.43,15.66-5.18,16.36-2.27.34-2.79-2.4-.94-8.51-1.52-9.13-3.17.48-3.15,3.36-.19,10-.35,11.1c-.86,5.58-3.19,10.38-3.27,14.82a10.68,10.68,0,0,0,1.12,4.79,15.44,15.44,0,0,0,9.35,8C166.31,152.79,169.34,148,174.6,144.3Z"/><path class="w" d="M174.6,144.3A18.45,18.45,0,0,1,184,141c.68,0,.9-.92.63-1.95-1.09-.41-6.32.84-11.16,3-7.09,3.2-15,6.95-21.1-1.58-1.59-2.21-2.2-8.4-1.66-11.07-.89,3.1-1.78,6-1.83,8.69a10.68,10.68,0,0,0,1.12,4.79c-3.63,5.56,4.2,10.71,10.73,10.84,2.54.05,2.39-2,5-3.08C168.85,149.42,171.28,146.65,174.6,144.3Z"/><path class="b" d="M299.81,215.12s5.44,2.56,11.5,9.64c4.32,5.06,25.64,42,33.06,77.32,1.63,7.75-9.92,39-30.75,53.75l18.6,4c-1.77-3.68-42.17-2.36-44.83-8.12-7.74-16.69,20.66-44.31,20.66-44.31Z"/><path class="i" d="M249.66,201.89c10.86,2.87,43.42,11.61,45.21,13.45,2.15,2.21,11.85,55.18,11.87,60.35,0,4.78-11.18,70.41-13,88.32H198.56c-1.83-17.91-13-83.54-13-88.32,0-5.17,9.91-58.32,11.87-60.35s20.23-5.63,31.09-8.51l13.69,18,1.95,0,2,3.51,2-3.51,1.94,0Z"/><path class="b" d="M187.7,293.55c-1.61-9.48-2.73-16.42-2.72-17.86,0-2.95,3.59-21.58,7.05-37.39,2.53,1.37,1.07,8.74,1.4,20.38C193.62,265.34,190.74,280.06,187.7,293.55Z"/><path class="b" d="M250,201.89c12,2.87,48,11.61,49.92,13.45,2.37,2.21,13.09,55.18,13.11,60.35,0,1.72-1.59,11.32-3.73,23.74-18.38,4.73-33.38,7.9-33.38,7.9s30.25-34.74,27.63-50-4.5-29.43-7-31-18.64-7.32-23.42-8.49-5.46,2.34-5.46,2.34-3.51,12.1-4.1,14.5-1.81,3.46-3.27,2.78-8.93-6.49-9.42-6.2-3.62,5.86-3.62,5.86L245,234.43l-1.88-4.78s-8.44,6.73-9.76,7.71-3.27.49-3.66-.88-4.11-19.11-4.11-19.11l2.66-12.09c5.65-1.39,10.7-2.61,14-3.39l-.48,22.92,2.15,0,2.21,3.51,2.22-3.51,2.14,0Z"/><path class="x" d="M245,226.55l1.1,1.75,1.11-1.75v32.72a1.11,1.11,0,1,1-2.21,0Z"/><path class="y" d="M245.56,164.21h.3c8.73-.13,16,9.07,16.06,20.44l.22,24.29c.06,7.33-2.84,13.84-7.26,17.58v-1.7h-6.53l-2.21,3.49-2.2-3.49h-5.33v2.68c-5-3.43-8.46-10.24-8.53-18.07l-.21-24.3C229.77,173.75,236.83,164.34,245.56,164.21Z"/><path class="z" d="M245.49,160.17a10.87,10.87,0,0,0-2.28-5.69L226.35,168a10.81,10.81,0,0,0,5.06,3.47l14.08-11.27Zm-3.39-6.9-16.68,13.35a10.48,10.48,0,0,1-1.16-2.83l15.33-12.27A10.55,10.55,0,0,1,242.1,153.27Z"/><path class="aa" d="M200.19,150.18,194,153.31c-5.32,17.5,7.67,48.15,32.58,37.2,9.89-4.35-8.51-41-8.51-41Z"/><path class="o" d="M192.93,159.33c-1.05,14,6.83,31.69,21.33,33.35C219.19,171.62,200.81,162.3,192.93,159.33Z"/><path class="aa" d="M285.42,116.38c11.53,9.77,28.64,42.73,11.11,53.88-5.69,3.63-9.93,8.73-19.68,4.36S268,118.4,268,118.4,279.58,113.43,285.42,116.38Z"/><path class="ab" d="M299.89,215.16c.17.12.62.44,1.27,1,2.89,8.38,5.78,21.89,7.29,43.65a.57.57,0,0,1-.4.66c-.24,0-.45-.22-.48-.55C306,236.8,302.86,223.18,299.89,215.16Z"/><path class="b" d="M210.81,209.53c-9.63,7.65-14.17,21.12-20.4,41.05l-.89-.12c6.06-19.5,10-32.89,19.71-40.79Z"/><path class="y" d="M216.61,146.79h-.76a10.24,10.24,0,1,0,8.07,3.44c-.24,3-1.33,6.63-5.19,6.36l1.08-5.8A3.51,3.51,0,0,0,216.61,146.79Z"/><path class="y" d="M289.42,159c.24.07.48.16.72.25h0a10.23,10.23,0,1,1-8.76.62c-.75,2.93-.9,6.7,2.84,7.7l.87-5.83A3.51,3.51,0,0,1,289.42,159Z"/><path class="v" d="M261.46,102.5h0a35.12,35.12,0,0,0-40.32,28.75l-5.27,31.41A35.12,35.12,0,0,0,244.62,203h0a35.1,35.1,0,0,0,40.32-28.75l5.27-31.41A35.12,35.12,0,0,0,261.46,102.5Z"/><path class="ac" d="M261.46,102.5h0a35.12,35.12,0,0,0-40.32,28.75l-5.27,31.41c-.12.74-.22,1.47-.29,2.21,20.62,1.49,41-8.56,44.83-33.34,0,0,8.23,1.25,10.29,1.79s9.81,6.84,9,16.74-3.4,28.56-9.4,37.6-15.63,15.65-31.58,13.78a34.06,34.06,0,0,0,5.94,1.54h0a35.1,35.1,0,0,0,40.32-28.75l5.27-31.41A35.12,35.12,0,0,0,261.46,102.5Z"/><path class="aa" d="M278.64,129.38s-1.94,14,6.9,19.54l-1.55,9.2c-.35,2.07.33,5.49,2.67,5.89l.82-4.94,3.32-4.24,2.11-22.89L285,116.56l-6.93-1.6S278.66,129.62,278.64,129.38Z"/><path class="aa" d="M282.76,117.77,275.59,126s-11.45-.45-15.62-2,8.46-26,8.46-26,7.78.9,8.41,1.41,1.69,9.34,1.69,9.34Z"/><path class="z" d="M275.34,158.12l-16.22,13a11.07,11.07,0,0,1-.79-3.13l14.14-11.31a10.76,10.76,0,0,1,2.87,1.45Zm4.23,6.24a10.76,10.76,0,0,0-2.95-5.16l-16.73,13.39a10.74,10.74,0,0,0,4.39,4Z"/><path class="y" d="M269.68,172.08a4.53,4.53,0,1,0,3.63,5.29A4.53,4.53,0,0,0,269.68,172.08Z"/><path class="y" d="M231.37,164.91A4.53,4.53,0,1,0,235,170.2,4.53,4.53,0,0,0,231.37,164.91Z"/><path class="aa" d="M232.4,147a9.06,9.06,0,0,1,8.39,1.37,1.12,1.12,0,1,0,1.45-1.71,11.33,11.33,0,0,0-10.5-1.8,1.12,1.12,0,0,0,.66,2.14Z"/><path class="aa" d="M231.23,160a3.27,3.27,0,0,1,1.33-2.14,3.28,3.28,0,0,1,4.59.77,3.24,3.24,0,0,1,.57,2.45,1.13,1.13,0,0,0,2.22.38,5.54,5.54,0,0,0-4.55-6.38,5.54,5.54,0,0,0-6.38,4.55,1.12,1.12,0,0,0,.92,1.29A1.14,1.14,0,0,0,231.23,160Z"/><path class="aa" d="M272.73,167a1.13,1.13,0,1,0,2.22.37A5.54,5.54,0,1,0,264,165.51a1.13,1.13,0,1,0,2.22.37,3.24,3.24,0,0,1,1.33-2.13,3.29,3.29,0,0,1,5.16,3.22Z"/><path class="aa" d="M275.87,154.28a1.11,1.11,0,0,0,1.56-.24,1.12,1.12,0,0,0-.25-1.57,11.37,11.37,0,0,0-10.51-1.72,1.12,1.12,0,1,0,.82,2.09A9.07,9.07,0,0,1,275.87,154.28Z"/><path class="ac" d="M280.25,349.25s5.46-3.65,8.39-5.41a7.71,7.71,0,0,1,7.88.08,124.28,124.28,0,0,1,11.24,9c1.26,1.33-6,4.26-6.79,4.26S280.25,349.25,280.25,349.25Z"/><path class="o" d="M157.7,361.87H333.93a4.94,4.94,0,0,0,4.92-4.92h0a4.94,4.94,0,0,0-4.92-4.93H157.7a4.94,4.94,0,0,0-4.92,4.93h0A4.94,4.94,0,0,0,157.7,361.87Z"/><path class="aa" d="M259,179a9.79,9.79,0,0,1-19.25-3.59h0a1.7,1.7,0,0,1,2-1.35l15.89,3a1.7,1.7,0,0,1,1.35,2Z"/><path class="ad" d="M254,185.84a9.81,9.81,0,0,1-11.25-1.4,6.1,6.1,0,0,1,6.17-2.53A6.18,6.18,0,0,1,254,185.84Z"/><path class="i" d="M242.28,174.17,257.21,177c-.07,1.7-1.15,3.22-2.33,3.38-1.43.19-12.18-2.11-12.79-3.11C241.8,176.75,242,175.42,242.28,174.17Z"/><path class="ae" d="M247.78,168.37s-1.73,2.21-1.53,3.57,2.13,1,2.51-.13a9.47,9.47,0,0,0,.1-3.6C248.77,167.94,248.22,167.75,247.78,168.37Z"/><path class="aa" d="M236.69,149.39a11.79,11.79,0,0,1,9.84,11.08,25.92,25.92,0,0,1,11.72,1.95A11.79,11.79,0,0,1,278.81,160a12.08,12.08,0,0,1,1.8,3.82l5.05-2.53a1,1,0,0,1,.88,1.75L281,165.78a12.3,12.3,0,0,1-.12,3,11.8,11.8,0,0,1-23.27-3.89c0-.18.07-.36.11-.53a23.46,23.46,0,0,0-11.23-1.88c0,.18,0,.35-.07.53a11.8,11.8,0,1,1-23.27-3.9,12,12,0,0,1,.88-2.89l-4.31-4.39a1,1,0,0,1,0-1.38,1,1,0,0,1,1.39,0l3.9,4a12,12,0,0,1,2.92-3,11.75,11.75,0,0,1,8.79-2Zm40.52,11.7a9.83,9.83,0,1,0,1.69,7.33,9.79,9.79,0,0,0-1.69-7.33Zm-34.46-5.77a9.82,9.82,0,1,0,1.69,7.33A9.79,9.79,0,0,0,242.75,155.32Z"/><path class="o" d="M275.59,126c2.6-15.16-9.58-19-13.65-4.46-6.24,22.32-16.76,51.85-58.27,36L194,153.31c10.46-29.51,40-60.63,72.61-61.78,10-.36,21.85,15.79,22.64,18.36s-.55,10.93-1.45,12.16c0,0-8.26,7.69-9.17,7.33S275.59,126,275.59,126Z"/><path class="n" d="M200.23,139.51a109.2,109.2,0,0,1,8.52-13.16c14.42,13,48.2,3.71,49.65-33.9,1.3-.24,2.61-.44,3.92-.59C258.19,129.46,233.17,152.75,200.23,139.51Z"/><path class="aa" d="M260.56,126.33c-6.49,21.46-18.28,46-56.89,31.24L194,153.31a90.75,90.75,0,0,1,3.54-8.54C208.75,150.6,239.49,162.06,260.56,126.33Z"/><path class="o" d="M330.7,257.46H160.93a3.86,3.86,0,0,0-3.9,4.59l13,86.17a5.55,5.55,0,0,0,5.29,4.59h141a5.55,5.55,0,0,0,5.28-4.59l13-86.17A3.86,3.86,0,0,0,330.7,257.46Z"/><path class="i" d="M262,204.8s-3.5,8.41-4.68,10.54-9,9.45-9,9.45-.25.63,0,1,11.95,9.95,11.95,9.95,1,.68,1.71-.83,4.34-14.3,4.63-17.52-1.46-13.17-1.46-13.17l-3.05-1.71Z"/><path class="i" d="M230.26,204.8s3.5,8.41,4.68,10.54,9,9.45,9,9.45.24.63,0,1-12,9.95-12,9.95-1,.68-1.7-.83-4.35-14.3-4.64-17.52.93-11.61.93-11.61l3.59-3.27Z"/><path class="o" d="M291.5,123.05c-8.27,10.84-4.09,34.57,12.18,36.27C305.72,148,298.82,132.76,291.5,123.05Z"/><path class="af" d="M326.92,261.53H164.7a3.69,3.69,0,0,0-3.72,4.39l12.4,82.34a5.3,5.3,0,0,0,5,4.39H313.2a5.3,5.3,0,0,0,5.05-4.39l12.4-82.34A3.69,3.69,0,0,0,326.92,261.53Z"/><path class="o" d="M170.2,327.14l3.18,21.12a5.3,5.3,0,0,0,5,4.39H313.2a5.3,5.3,0,0,0,5.05-4.39l12.4-82.34a3.68,3.68,0,0,0-2.4-4.17C309.68,293.78,264.05,346.25,170.2,327.14Z"/><path class="o" d="M245.81,330.76c9.94,0,18.05-6.77,18.05-15.07s-8.11-15.05-18.05-15.05-18,6.76-18,15.05S235.88,330.76,245.81,330.76Z"/><path class="i" d="M245.81,304.25a14.4,14.4,0,0,1,11.84,5.67l-21,14.3a10.69,10.69,0,0,1-4.57-8.53c0-6.31,6.14-11.44,13.71-11.44ZM257,322.37l-6.3-3.47-10.5,7.22a16,16,0,0,0,5.66,1A14.68,14.68,0,0,0,257,322.37Z"/><path class="b" d="M192.83,233.82a151.61,151.61,0,0,1-28.1,1.5c-28.25-.78-44.35-8.26-42.76-32.49-2.89,12.42-2.42,23.42,5.24,29.95,12.85,9.26,41.85,15.48,62.24,17.7.48-2.32,1-4.68,1.47-7C191.56,240.15,192.2,236.89,192.83,233.82Z"/><path class="o" d="M105.66,365.78h281a6.43,6.43,0,0,1,6.41,6.42h0a6.43,6.43,0,0,1-6.41,6.42h-281a6.43,6.43,0,0,1-6.41-6.42h0A6.43,6.43,0,0,1,105.66,365.78Z"/><path class="ag" d="M92,355.83H400.33a8.2,8.2,0,0,1,8.18,8.18h0a8.2,8.2,0,0,1-8.18,8.19H92A8.2,8.2,0,0,1,83.82,364h0A8.2,8.2,0,0,1,92,355.83Z"/><rect class="ah" x="278.88" y="355.83" width="17.04" height="16.37"/><rect class="ah" x="304.77" y="355.83" width="8.85" height="16.37"/><rect class="ah" x="322.91" y="355.83" width="4.42" height="16.37"/><rect class="ah" x="342.48" y="355.83" width="19.05" height="16.37"/><rect class="ah" x="375.9" y="355.83" width="9.53" height="16.37"/><path class="ai" d="M92.66,358.49H242.52a4.88,4.88,0,0,1,4.86,4.86h0a4.88,4.88,0,0,1-4.86,4.87H92.66a4.88,4.88,0,0,1-4.86-4.87h0A4.88,4.88,0,0,1,92.66,358.49Z"/></svg>